<svg width="16" height="16" viewBox="0 0 16 16" fill="none" xmlns="http://www.w3.org/2000/svg">
<g clip-path="url(#clip0_915_2907)">
<path d="M13.3 3.69093L10.9773 1.36693C10.5449 0.932352 10.0306 0.587813 9.46413 0.353232C8.89771 0.118651 8.2904 -0.00131844 7.67732 0.000259506H4.66732C3.78359 0.00131808 2.93636 0.352847 2.31146 0.977739C1.68657 1.60263 1.33504 2.44986 1.33398 3.33359V12.6669C1.33504 13.5507 1.68657 14.3979 2.31146 15.0228C2.93636 15.6477 3.78359 15.9992 4.66732 16.0003H11.334C12.2177 15.9992 13.0649 15.6477 13.6898 15.0228C14.3147 14.3979 14.6663 13.5507 14.6673 12.6669V6.99026C14.669 6.37721 14.549 5.76992 14.3143 5.20358C14.0796 4.63723 13.7348 4.12309 13.3 3.69093ZM12.3573 4.63359C12.5609 4.84302 12.736 5.07839 12.878 5.33359H10.0007C9.82384 5.33359 9.65427 5.26335 9.52925 5.13833C9.40422 5.01331 9.33398 4.84374 9.33398 4.66693V1.78959C9.58927 1.93154 9.82484 2.10637 10.0347 2.30959L12.3573 4.63359ZM13.334 12.6669C13.334 13.1974 13.1233 13.7061 12.7482 14.0811C12.3731 14.4562 11.8644 14.6669 11.334 14.6669H4.66732C4.13688 14.6669 3.62818 14.4562 3.2531 14.0811C2.87803 13.7061 2.66732 13.1974 2.66732 12.6669V3.33359C2.66732 2.80316 2.87803 2.29445 3.2531 1.91938C3.62818 1.54431 4.13688 1.33359 4.66732 1.33359H7.67732C7.78665 1.33359 7.89265 1.35493 8.00065 1.36493V4.66693C8.00065 5.19736 8.21136 5.70607 8.58644 6.08114C8.96151 6.45621 9.47022 6.66693 10.0007 6.66693H13.3027C13.3127 6.77493 13.334 6.88026 13.334 6.99026V12.6669Z" fill="#01565B"/>
</g>
<defs>
<clipPath id="clip0_915_2907">
<rect width="16" height="16" fill="white"/>
</clipPath>
</defs>
</svg>
