<svg width="14" height="12" viewBox="0 0 14 12" fill="none" xmlns="http://www.w3.org/2000/svg">
<path d="M13.5523 6.36487L13.5523 6.36489L8.48982 11.4274C8.39307 11.5241 8.26184 11.5785 8.125 11.5785C7.98816 11.5785 7.85693 11.5241 7.76018 11.4274C7.66342 11.3306 7.60906 11.1994 7.60906 11.0626C7.60906 10.9257 7.66342 10.7945 7.76018 10.6977L11.8629 6.59572L11.9429 6.51569H11.8298H0.8125C0.675748 6.51569 0.544597 6.46137 0.447898 6.36467C0.3512 6.26797 0.296875 6.13682 0.296875 6.00007C0.296875 5.86332 0.3512 5.73217 0.447898 5.63547C0.544597 5.53877 0.675748 5.48444 0.8125 5.48444H11.8298H11.9429L11.8629 5.40442L7.76018 1.30239C7.66342 1.20563 7.60906 1.0744 7.60906 0.937569C7.60906 0.800733 7.66342 0.669503 7.76018 0.572745C7.85693 0.475988 7.98816 0.421631 8.125 0.421631C8.26184 0.421631 8.39307 0.475988 8.48982 0.572746L13.5523 5.63524L13.5523 5.63526C13.6003 5.68315 13.6383 5.74002 13.6643 5.80261C13.6902 5.86521 13.7036 5.93231 13.7036 6.00007C13.7036 6.06783 13.6902 6.13493 13.6643 6.19752C13.6383 6.26012 13.6003 6.31699 13.5523 6.36487Z" fill="#1990FF" stroke="#1990FF" stroke-width="0.09375"/>
</svg>
