<svg width="41" height="40" viewBox="0 0 41 40" fill="none" xmlns="http://www.w3.org/2000/svg">
<g clip-path="url(#clip0_248_12385)">
<path d="M40.334 16.6668V13.1818C40.3341 12.2835 40.0923 11.4018 39.6339 10.6293C39.1755 9.85679 38.5175 9.22205 37.729 8.79178L22.729 0.610113C21.9947 0.208212 21.1711 -0.00244141 20.334 -0.00244141C19.4969 -0.00244141 18.6733 0.208212 17.939 0.610113L2.93898 8.79178C2.15047 9.22205 1.49244 9.85679 1.03404 10.6293C0.575643 11.4018 0.333818 12.2835 0.333984 13.1818V16.6668H5.33398V31.6668H2.00065V36.6668H0.333984V40.0001H40.334V36.6668H38.6673V31.6668H35.334V16.6668H40.334ZM23.6673 16.6668V31.6668H17.0007V16.6668H23.6673ZM8.66732 16.6668H13.6673V31.6668H8.66732V16.6668ZM32.0007 31.6668H27.0007V16.6668H32.0007V31.6668Z" fill="#01565B"/>
</g>
<defs>
<clipPath id="clip0_248_12385">
<rect width="40" height="40" fill="white" transform="translate(0.333984)"/>
</clipPath>
</defs>
</svg>
