<svg width="41" height="40" viewBox="0 0 41 40" fill="none" xmlns="http://www.w3.org/2000/svg">
<path d="M36.3586 8.33333H29.002V0.976667L36.3586 8.33333ZM37.3353 11.6667V40H4.00195V5C4.00195 3.67392 4.52874 2.40215 5.46642 1.46447C6.4041 0.526784 7.67587 0 9.00195 0L25.6686 0V11.6667H37.3353ZM28.3536 22.56L26.002 20.2033L20.0186 26.1783C19.7016 26.4816 19.2798 26.6509 18.8411 26.6509C18.4024 26.6509 17.9806 26.4816 17.6636 26.1783L15.0203 23.5367L12.6686 25.8933L15.3103 28.535C15.7746 28.9994 16.3258 29.3678 16.9325 29.6191C17.5392 29.8704 18.1894 29.9998 18.8461 29.9998C19.5028 29.9998 20.153 29.8704 20.7597 29.6191C21.3664 29.3678 21.9176 28.9994 22.382 28.535L28.3536 22.56Z" fill="#01565B"/>
</svg>
