<svg width="16" height="16" viewBox="0 0 16 16" fill="none" xmlns="http://www.w3.org/2000/svg">
<g clip-path="url(#clip0_802_6103)">
<path d="M11.5097 5.09832C11.2403 3.94031 10.5549 2.92162 9.5837 2.23589C8.61246 1.55015 7.42313 1.24518 6.24176 1.37894C5.06039 1.51269 3.96934 2.07586 3.17601 2.96138C2.38268 3.8469 1.94236 4.99305 1.93876 6.18196C1.93788 6.95679 2.12505 7.72025 2.48422 8.40681C1.83036 8.75719 1.31234 9.31604 1.01247 9.99456C0.712605 10.6731 0.648088 11.4323 0.829171 12.1517C1.01025 12.8711 1.42655 13.5094 2.01192 13.9651C2.59729 14.4207 3.31815 14.6677 4.05998 14.6668H7.99937V13.4547H4.05998C3.54387 13.4562 3.045 13.2691 2.65726 12.9284C2.26952 12.5878 2.01966 12.1172 1.95471 11.6052C1.88976 11.0932 2.0142 10.5751 2.3046 10.1484C2.59501 9.72179 3.03135 9.416 3.53149 9.28863L4.4024 9.06378L3.86725 8.34075C3.40151 7.71744 3.15018 6.96005 3.15088 6.18196C3.1578 5.26437 3.51136 4.38333 4.14067 3.71551C4.76997 3.04769 5.62849 2.64247 6.54405 2.58113C7.45961 2.51978 8.36451 2.80685 9.07728 3.38474C9.79005 3.96264 10.258 4.78865 10.3872 5.69711L10.4479 6.1565L10.9066 6.21711C11.7163 6.32323 12.4666 6.69924 13.0362 7.28439C13.6058 7.86954 13.9615 8.62965 14.0458 9.44189C14.1301 10.2541 13.9381 11.0711 13.5007 11.7607C13.0634 12.4504 12.4064 12.9724 11.6357 13.2426V14.5074C12.6869 14.2371 13.6167 13.6215 14.2759 12.7593C14.9352 11.8972 15.2857 10.8385 15.2712 9.75332C15.2566 8.66809 14.8779 7.61922 14.1958 6.77505C13.5136 5.93089 12.5677 5.34038 11.5097 5.09832Z" fill="#34787C"/>
<path d="M11.8133 11.4591L12.6703 10.6021L10.6745 8.60636C10.4472 8.37912 10.139 8.25146 9.81757 8.25146C9.49616 8.25146 9.1879 8.37912 8.9606 8.60636L6.96484 10.6021L7.82181 11.4591L9.21151 10.0694V15.273H10.4236V10.0694L11.8133 11.4591Z" fill="#34787C"/>
</g>
<defs>
<clipPath id="clip0_802_6103">
<rect width="14.5455" height="14.5455" fill="white" transform="translate(0.726562 0.727295)"/>
</clipPath>
</defs>
</svg>
