<svg width="40" height="40" viewBox="0 0 40 40" fill="none" xmlns="http://www.w3.org/2000/svg">
<g clip-path="url(#clip0_248_12388)">
<path d="M26.7383 23.3342H13.2617C11.0713 23.3369 8.9715 24.2081 7.42271 25.7569C5.87392 27.3057 5.00265 29.4056 5 31.5959V40.0009H35V31.5959C34.9974 29.4056 34.1261 27.3057 32.5773 25.7569C31.0285 24.2081 28.9286 23.3369 26.7383 23.3342V23.3342Z" fill="#01565B"/>
<path d="M20 20C25.5228 20 30 15.5228 30 10C30 4.47715 25.5228 0 20 0C14.4772 0 10 4.47715 10 10C10 15.5228 14.4772 20 20 20Z" fill="#01565B"/>
</g>
<defs>
<clipPath id="clip0_248_12388">
<rect width="40" height="40" fill="white"/>
</clipPath>
</defs>
</svg>
